<svg width="58" height="58" viewBox="0 0 58 58" fill="none" xmlns="http://www.w3.org/2000/svg">
<path d="M47.125 29C45.8345 29.0066 44.5697 29.361 43.4637 30.0258L38.2818 24.8439L42.4379 20.6878C43.1175 20.008 43.4992 19.0862 43.4992 18.125C43.4992 17.1637 43.1175 16.2419 42.4379 15.5621L31.5629 4.68708C30.8831 4.0075 29.9612 3.62573 29 3.62573C28.0388 3.62573 27.1169 4.0075 26.4371 4.68708L15.5621 15.5621C14.8825 16.2419 14.5008 17.1637 14.5008 18.125C14.5008 19.0862 14.8825 20.008 15.5621 20.6878L19.7182 24.8439L14.5362 30.0258C13.0008 29.1148 11.1857 28.7957 9.43161 29.1283C7.67755 29.461 6.10526 30.4226 5.01001 31.8325C3.91476 33.2424 3.3719 35.0036 3.48336 36.7855C3.59482 38.5673 4.35295 40.2472 5.61537 41.5096C6.87778 42.772 8.55765 43.5301 10.3395 43.6416C12.1213 43.7531 13.8826 43.2102 15.2925 42.1149C16.7024 41.0197 17.664 39.4474 17.9966 37.6933C18.3293 35.9393 18.0101 34.1241 17.0991 32.5887L22.2811 27.4068L26.4371 31.5628C26.6619 31.7818 26.9141 31.9707 27.1875 32.1247V39.875H21.75V54.375H36.25V39.875H30.8125V32.1229C31.0858 31.9694 31.338 31.7812 31.5629 31.5628L35.7189 27.4068L40.9009 32.5887C40.0982 33.9656 39.773 35.5692 39.9758 37.1501C40.1786 38.731 40.8981 40.2005 42.0225 41.3302C43.1468 42.4599 44.6129 43.1864 46.1927 43.3968C47.7726 43.6072 49.3778 43.2896 50.7585 42.4935C52.1393 41.6974 53.2183 40.4673 53.8277 38.9946C54.4371 37.5219 54.5429 35.8891 54.1284 34.3501C53.714 32.811 52.8027 31.4521 51.5361 30.4846C50.2696 29.517 48.7188 28.9951 47.125 29ZM14.5 36.25C14.5 36.9669 14.2874 37.6678 13.8891 38.2639C13.4908 38.86 12.9246 39.3247 12.2622 39.599C11.5998 39.8734 10.871 39.9452 10.1678 39.8053C9.46461 39.6654 8.8187 39.3202 8.31173 38.8132C7.80477 38.3063 7.45952 37.6603 7.31965 36.9572C7.17978 36.254 7.25156 35.5251 7.52593 34.8627C7.8003 34.2003 8.26493 33.6342 8.86105 33.2359C9.45718 32.8376 10.158 32.625 10.875 32.625C11.8364 32.625 12.7584 33.0069 13.4383 33.6867C14.1181 34.3665 14.5 35.2885 14.5 36.25ZM32.625 43.5V50.75H25.375V43.5H32.625ZM29 29L18.125 18.125L29 7.24996L39.875 18.125L29 29ZM47.125 39.875C46.408 39.875 45.7072 39.6624 45.1111 39.264C44.5149 38.8657 44.0503 38.2996 43.7759 37.6372C43.5016 36.9748 43.4298 36.2459 43.5696 35.5428C43.7095 34.8396 44.0548 34.1937 44.5617 33.6867C45.0687 33.1797 45.7146 32.8345 46.4178 32.6946C47.121 32.5547 47.8498 32.6265 48.5122 32.9009C49.1746 33.1753 49.7408 33.6399 50.1391 34.236C50.5374 34.8321 50.75 35.533 50.75 36.25C50.75 37.2114 50.3681 38.1334 49.6883 38.8132C49.0084 39.493 48.0864 39.875 47.125 39.875Z" fill="#056CC6"/>
</svg>
