<svg width="82" height="82" viewBox="0 0 82 82" fill="none" xmlns="http://www.w3.org/2000/svg">
<path d="M69.1875 48.6875C73.4259 48.6875 76.875 45.2384 76.875 41C76.875 36.7616 73.4259 33.3125 69.1875 33.3125C67.6028 33.3172 66.0583 33.8124 64.7663 34.73C63.4743 35.6477 62.498 36.9428 61.9715 38.4375H47.1859L65.8921 19.7312C66.8966 20.2104 68.0036 20.5 69.1875 20.5C73.4259 20.5 76.875 17.0509 76.875 12.8125C76.875 8.57412 73.4259 5.125 69.1875 5.125C64.9491 5.125 61.5 8.57412 61.5 12.8125C61.5 13.9964 61.7921 15.1034 62.2687 16.1053L41 37.3766V20.5C41 17.6761 43.2986 15.375 46.125 15.375H51.25V10.25H46.125C43.05 10.25 40.3184 11.6414 38.4375 13.7914C37.4843 12.6852 36.3047 11.7965 34.9785 11.1856C33.6522 10.5746 32.2102 10.2555 30.75 10.25H28.1875C15.4724 10.25 5.125 20.5948 5.125 33.3125V48.6875C5.125 61.4052 15.4724 71.75 28.1875 71.75H30.75C33.825 71.75 36.5566 70.3611 38.4375 68.2086C40.3184 70.3611 43.05 71.75 46.125 71.75H51.25V66.625H46.125C43.2986 66.625 41 64.3264 41 61.5V44.6234L62.2687 65.8947C61.7896 66.8966 61.5 68.0036 61.5 69.1875C61.5 73.4284 64.9491 76.875 69.1875 76.875C73.4259 76.875 76.875 73.4284 76.875 69.1875C76.875 64.9466 73.4259 61.5 69.1875 61.5C68.0458 61.506 66.9203 61.7697 65.8947 62.2713L47.1859 43.5651H61.9715C62.4984 45.0593 63.4749 46.3539 64.7669 47.271C66.0589 48.1882 67.6031 48.683 69.1875 48.6875ZM69.1875 38.4375C69.8671 38.4375 70.5189 38.7075 70.9995 39.188C71.48 39.6686 71.75 40.3204 71.75 41C71.75 41.6796 71.48 42.3314 70.9995 42.812C70.5189 43.2925 69.8671 43.5625 69.1875 43.5625C68.5079 43.5625 67.8561 43.2925 67.3755 42.812C66.895 42.3314 66.625 41.6796 66.625 41C66.625 40.3204 66.895 39.6686 67.3755 39.188C67.8561 38.7075 68.5079 38.4375 69.1875 38.4375ZM69.1875 10.25C69.8473 10.2795 70.4703 10.5624 70.9267 11.0397C71.3832 11.517 71.6379 12.152 71.6379 12.8125C71.6379 13.473 71.3832 14.108 70.9267 14.5853C70.4703 15.0626 69.8473 15.3455 69.1875 15.375C68.5079 15.375 67.8561 15.105 67.3755 14.6245C66.895 14.1439 66.625 13.4921 66.625 12.8125C66.625 12.1329 66.895 11.4811 67.3755 11.0005C67.8561 10.52 68.5079 10.25 69.1875 10.25ZM35.875 30.75H30.75V35.875H35.875V46.125H30.75C26.5116 46.125 23.0625 49.5741 23.0625 53.8125V58.9375H28.1875V53.8125C28.1875 53.1329 28.4575 52.4811 28.938 52.0005C29.4186 51.52 30.0704 51.25 30.75 51.25H35.875V61.5C35.875 64.3264 33.5764 66.625 30.75 66.625H28.1875C19.1675 66.625 11.7055 59.9292 10.455 51.25H15.375V46.125H10.25V35.875H17.9375C22.1759 35.875 25.625 32.4259 25.625 28.1875V23.0625H20.5V28.1875C20.5 28.8671 20.23 29.5189 19.7495 29.9995C19.2689 30.48 18.6171 30.75 17.9375 30.75H10.455C11.7055 22.0708 19.1675 15.375 28.1875 15.375H30.75C33.5764 15.375 35.875 17.6761 35.875 20.5V30.75ZM71.75 69.1875C71.7205 69.8473 71.4376 70.4703 70.9603 70.9267C70.483 71.3832 69.848 71.6379 69.1875 71.6379C68.527 71.6379 67.892 71.3832 67.4147 70.9267C66.9374 70.4703 66.6545 69.8473 66.625 69.1875C66.625 67.7756 67.7756 66.625 69.1875 66.625C70.5994 66.625 71.75 67.7756 71.75 69.1875Z" fill="#056CC6"/>
</svg>
